# xmcd
#
# Track frame offsets: 
#        150
#        18023
#        35320
#        56894
#        75185
#        94456
#        112145
#        128697
#        142392
#        160454
#        175573
#
# Disc length: 2636 seconds
#
# Revision: 0
# Processed by: cddbd v1.5.2PL0 Copyright (c) Steve Scherf et al.
# Submitted via: ExactAudioCopy v1.1
#
DISCID=8e0a4a0b
DTITLE=Aaron Williams and the Hoodoo - It Ain't Easy
DYEAR=2009
DGENRE=Blues
TTITLE0=Hypnotize
TTITLE1=Seven Days
TTITLE2=It Ain't Easy
TTITLE3=Livin' On Love
TTITLE4=Wrong Me
TTITLE5=Drinking Blues
TTITLE6=No Time For Love
TTITLE7=Porterhouse 650
TTITLE8=Hotel or Motel
TTITLE9=Decide, Decide
TTITLE10=Lil' Old Lady
EXTD=
EXTT0=
EXTT1=
EXTT2=
EXTT3=
EXTT4=
EXTT5=
EXTT6=
EXTT7=
EXTT8=
EXTT9=
EXTT10=
PLAYORDER=
